# xmcd
# 
# Track frame offsets:
#     150
#     16855
#     37237
#     60075
#     86927
#     110467
#     139152
#     167659
# 
# Disc length: 2710
# 
# Revision: 0
# Processed by: cddbd v1.5.2PL0 Copyright (c) Steve Scherf et al.
# Submitted via: fre:ac v1.0.17
# 
DISCID=630a9408
DTITLE=The Pat Tinney Group - Get Up
DYEAR=1997
DGENRE=Rock
TTITLE0=Get Up
TTITLE1=Life On A Shelf
TTITLE2=Schmaka
TTITLE3=Born To Suffer
TTITLE4=Way I Feel
TTITLE5=Hard To 'Cplain
TTITLE6=Monkey See
TTITLE7=4 By 6
EXTD=Recorded Live @ The Edge, Palo Alto, CA.\nRees Roberts Live Mix/Record Audio Engineer\n
EXTT0=
EXTT1=
EXTT2=
EXTT3=
EXTT4=
EXTT5=
EXTT6=
EXTT7=
PLAYORDER=
